ffmpeg version 4.2.2-ok2 Copyright (c) 2000-2019 the FFmpeg developers
  built with gcc 9 (Ubuntu 9.3.0-ok4)
  configuration: --prefix=/usr --extra-version=ok2 --toolchain=hardened --libdir=/usr/lib/riscv64-linux-gnu --incdir=/usr/include/riscv64-linux-gnu --arch=riscv64 --enable-gpl --disable-stripping --enable-avresample --disable-filter=resample --enable-avisynth --enable-gnutls --enable-ladspa --enable-libaom --enable-libass --enable-libbluray --enable-libbs2b --enable-libcaca --enable-libcdio --enable-libcodec2 --enable-libflite --enable-libfontconfig --enable-libfreetype --enable-libfribidi --enable-libgme --enable-libgsm --enable-libjack --enable-libmp3lame --enable-libmysofa --enable-libopenjpeg --enable-libopenmpt --enable-libopus --enable-libpulse --enable-librsvg --enable-librubberband --enable-libshine --enable-libsnappy --enable-libsoxr --enable-libspeex --enable-libssh --enable-libtheora --enable-libtwolame --enable-libvidstab --enable-libvorbis --enable-libvpx --enable-libwavpack --enable-libwebp --enable-libx265 --enable-libxml2 --enable-libxvid --enable-libzmq --enable-libzvbi --enable-lv2 --enable-omx --enable-openal --enable-opencl --enable-opengl --enable-sdl2 --enable-libdc1394 --enable-libdrm --enable-libiec61883 --enable-chromaprint --enable-frei0r --enable-libx264 --enable-shared
  libavutil      56. 31.100 / 56. 31.100
  libavcodec     58. 54.100 / 58. 54.100
  libavformat    58. 29.100 / 58. 29.100
  libavdevice    58.  8.100 / 58.  8.100
  libavfilter     7. 57.100 /  7. 57.100
  libavresample   4.  0.  0 /  4.  0.  0
  libswscale      5.  5.100 /  5.  5.100
  libswresample   3.  5.100 /  3.  5.100
  libpostproc    55.  5.100 / 55.  5.100
Stream mapping:
  testsrc -> Stream #0:0 (wrapped_avframe)
Press [q] to stop, [?] for help
Output #0, yuv4mpegpipe, to 'in.y4m':
  Metadata:
    encoder         : Lavf58.29.100
    Stream #0:0: Video: wrapped_avframe, yuv420p, 320x240 [SAR 1:1 DAR 4:3], q=2-31, 200 kb/s, 25 fps, 25 tbn, 25 tbc (default)
    Metadata:
      encoder         : Lavc58.54.100 wrapped_avframe
frame=   54 fps=0.0 q=-0.0 size=    5888kB time=00:00:02.16 bitrate=22330.8kbits/s speed=4.28x    frame=  128 fps=127 q=-0.0 size=   14336kB time=00:00:05.12 bitrate=22937.6kbits/s speed=5.08x    frame=  201 fps=133 q=-0.0 size=   22528kB time=00:00:08.04 bitrate=22953.9kbits/s speed=5.33x    frame=  250 fps=135 q=-0.0 Lsize=   28127kB time=00:00:10.00 bitrate=23041.2kbits/s speed=5.39x    
video:131kB audio:0kB subtitle:0kB other streams:0kB global headers:0kB muxing overhead: 21393.699219%
y4m  [info]: 320x240 fps 25/1 i420p8 sar 1:1 frames 0 - 249 of 250
raw  [info]: output file: out.raw
x265 [info]: HEVC encoder version 3.2.1+1-b5c86a64bbbe
x265 [info]: build info [Linux][GCC 9.3.0][32 bit][noasm] 8bit+10bit+12bit
x265 [info]: using cpu capabilities: none!
x265 [info]: Main profile, Level-2 (Main tier)
x265 [info]: Thread pool created using 8 threads
x265 [info]: Slices                              : 1
x265 [info]: frame threads / pool features       : 3 / wpp(4 rows)
x265 [warning]: Source height < 720p; disabling lookahead-slices
x265 [info]: Coding QT: max CU size, min CU size : 64 / 8
x265 [info]: Residual QT: max TU size, max depth : 32 / 1 inter / 1 intra
x265 [info]: ME / range / subpel / merge         : hex / 57 / 2 / 3
x265 [info]: Keyframe min / max / scenecut / bias: 25 / 250 / 40 / 5.00
x265 [info]: Lookahead / bframes / badapt        : 20 / 4 / 2
x265 [info]: b-pyramid / weightp / weightb       : 1 / 1 / 0
x265 [info]: References / ref-limit  cu / depth  : 3 / off / on
x265 [info]: AQ: mode / str / qg-size / cu-tree  : 2 / 1.0 / 32 / 1
x265 [info]: Rate Control / qCompress            : CRF-28.0 / 0.60
x265 [info]: tools: rd=3 psy-rd=2.00 early-skip rskip signhide tmvp b-intra
x265 [info]: tools: strong-intra-smoothing deblock sao
[0.4%] 1/250 frames, 1.04 fps, 878.80 kb/s, eta 0:03:59  [2.4%] 6/250 frames, 4.88 fps, 164.47 kb/s, eta 0:00:50  [5.6%] 14/250 frames, 9.41 fps, 79.90 kb/s, eta 0:00:25  [9.2%] 23/250 frames, 12.91 fps, 55.51 kb/s, eta 0:00:17  [12.4%] 31/250 frames, 15.25 fps, 45.72 kb/s, eta 0:00:14  [16.0%] 40/250 frames, 17.29 fps, 40.04 kb/s, eta 0:00:12  [19.6%] 49/250 frames, 18.92 fps, 36.83 kb/s, eta 0:00:10  [23.6%] 59/250 frames, 20.48 fps, 34.10 kb/s, eta 0:00:09  [27.2%] 68/250 frames, 21.64 fps, 31.90 kb/s, eta 0:00:08  [30.8%] 77/250 frames, 22.57 fps, 30.49 kb/s, eta 0:00:07  [34.0%] 85/250 frames, 23.17 fps, 29.63 kb/s, eta 0:00:07  [37.6%] 94/250 frames, 23.74 fps, 28.25 kb/s, eta 0:00:06  [40.8%] 102/250 frames, 24.13 fps, 28.00 kb/s, eta 0:00:06  [44.4%] 111/250 frames, 24.72 fps, 27.13 kb/s, eta 0:00:05  [48.0%] 120/250 frames, 25.26 fps, 26.37 kb/s, eta 0:00:05  [51.2%] 128/250 frames, 25.37 fps, 26.02 kb/s, eta 0:00:04  [55.2%] 138/250 frames, 25.90 fps, 25.79 kb/s, eta 0:00:04  [58.8%] 147/250 frames, 26.32 fps, 25.27 kb/s, eta 0:00:03  [62.4%] 156/250 frames, 26.56 fps, 24.90 kb/s, eta 0:00:03  [66.4%] 166/250 frames, 26.87 fps, 24.46 kb/s, eta 0:00:03  [70.0%] 175/250 frames, 27.13 fps, 24.22 kb/s, eta 0:00:02  [74.0%] 185/250 frames, 27.33 fps, 23.97 kb/s, eta 0:00:02  [77.2%] 193/250 frames, 27.49 fps, 23.71 kb/s, eta 0:00:02  [80.8%] 202/250 frames, 27.66 fps, 23.55 kb/s, eta 0:00:01  [84.4%] 211/250 frames, 27.90 fps, 23.45 kb/s, eta 0:00:01  [87.6%] 219/250 frames, 28.00 fps, 23.26 kb/s, eta 0:00:01  [90.8%] 227/250 frames, 28.12 fps, 23.20 kb/s, eta 0:00:00  [94.0%] 235/250 frames, 28.11 fps, 23.00 kb/s, eta 0:00:00  [98.0%] 245/250 frames, 28.41 fps, 22.60 kb/s, eta 0:00:00                                                                                  x265 [info]: frame I:      1, Avg QP:26.96  kb/s: 443.60  
x265 [info]: frame P:     70, Avg QP:31.18  kb/s: 50.19   
x265 [info]: frame B:    179, Avg QP:35.63  kb/s: 5.70    
x265 [info]: Weighted P-Frames: Y:0.0% UV:0.0%
x265 [info]: consecutive B-frames: 5.6% 5.6% 25.4% 57.7% 5.6% 

encoded 250 frames in 8.64s (28.93 fps), 19.91 kb/s, Avg QP:34.35
ffprobe version 4.2.2-ok2 Copyright (c) 2007-2019 the FFmpeg developers
  built with gcc 9 (Ubuntu 9.3.0-ok4)
  configuration: --prefix=/usr --extra-version=ok2 --toolchain=hardened --libdir=/usr/lib/riscv64-linux-gnu --incdir=/usr/include/riscv64-linux-gnu --arch=riscv64 --enable-gpl --disable-stripping --enable-avresample --disable-filter=resample --enable-avisynth --enable-gnutls --enable-ladspa --enable-libaom --enable-libass --enable-libbluray --enable-libbs2b --enable-libcaca --enable-libcdio --enable-libcodec2 --enable-libflite --enable-libfontconfig --enable-libfreetype --enable-libfribidi --enable-libgme --enable-libgsm --enable-libjack --enable-libmp3lame --enable-libmysofa --enable-libopenjpeg --enable-libopenmpt --enable-libopus --enable-libpulse --enable-librsvg --enable-librubberband --enable-libshine --enable-libsnappy --enable-libsoxr --enable-libspeex --enable-libssh --enable-libtheora --enable-libtwolame --enable-libvidstab --enable-libvorbis --enable-libvpx --enable-libwavpack --enable-libwebp --enable-libx265 --enable-libxml2 --enable-libxvid --enable-libzmq --enable-libzvbi --enable-lv2 --enable-omx --enable-openal --enable-opencl --enable-opengl --enable-sdl2 --enable-libdc1394 --enable-libdrm --enable-libiec61883 --enable-chromaprint --enable-frei0r --enable-libx264 --enable-shared
  libavutil      56. 31.100 / 56. 31.100
  libavcodec     58. 54.100 / 58. 54.100
  libavformat    58. 29.100 / 58. 29.100
  libavdevice    58.  8.100 / 58.  8.100
  libavfilter     7. 57.100 /  7. 57.100
  libavresample   4.  0.  0 /  4.  0.  0
  libswscale      5.  5.100 /  5.  5.100
  libswresample   3.  5.100 /  3.  5.100
  libpostproc    55.  5.100 / 55.  5.100
Input #0, hevc, from 'out.raw':
  Duration: N/A, bitrate: N/A
    Stream #0:0: Video: hevc (Main), yuv420p(tv), 320x240 [SAR 1:1 DAR 4:3], 25 fps, 25 tbr, 1200k tbn, 25 tbc
